# generated from PmQm by Jehee Lee
:FULLY-SPECIFIED
:DEGREES
256
root 160.108346 19.9432 -65.88324964 45.03984691 28.65710835 -6.197635923
RightUpLeg -37.85202099 6.004889529 -12.19400026
RightLeg 105.9914685 3.005446356 -1.626956395
RightFoot -14.3130684 12.69865101 -5.453658501
RightToes 1.74622e-010 -3.18055e-015 8.94531e-016
Spine 49.0031 -2.58627 3.83413
Spine1 -15.3289 -0.312153 -12.8053
HEad -64.6113 2.68247 9.07747
LeftShoulder1 0 -2.69403e-036 -1.28585e-037
LeftArm 14.5925 -20.0378 -81.2014
LeftForeArm 5.74065 -35.3104 24.0342
LeftHand -2.97679 -0.394972 38.4478
RightShoulder -2.48481e-017 0 -8.08114e-019
RightArm -5.54418 34.4587 98.077
RightForeArm 19.9798 -0.0959086 0.372567
RightHand 8.64726 -21.2425 -44.6303
LeftUpLeg -41.27199145 -6.713315291 2.569051196
LeftLeg 102.0326684 0 0
LeftFoot 5.993492289 -24.70455121 -1.40351018
LeftToes 4.94765e-010 2.02697e-011 4.00889e-011
257
root 160.7131711 19.9367 -65.17592002 45.16662191 28.7300969 -6.796448519
RightUpLeg -43.77579189 5.870992486 -11.40578773
RightLeg 113.7173867 3.184065653 -0.9934775945
RightFoot -17.01694382 12.41541778 -6.955537552
RightToes 1.74622e-010 -3.18055e-015 8.94531e-016
Spine 48.7289 -2.37773 4.36932
Spine1 -15.881 0.0305705 -11.7456
HEad -64.1844 3.32282 7.79427
LeftShoulder1 0 -2.69403e-036 -1.28585e-037
LeftArm 13.3422 -30.3256 -79.6257
LeftForeArm 4.38845 -32.9554 22.8245
LeftHand -2.68083 -0.164951 36.2811
RightShoulder -2.48481e-017 0 -8.08114e-019
RightArm -5.9682 32.1169 98.8328
RightForeArm 22.063 -0.190785 0.631628
RightHand 8.96594 -21.488 -45.6884
LeftUpLeg -39.41737394 -6.797399183 2.559666888
LeftLeg 98.08643686 0 0
LeftFoot 5.368705485 -23.66590888 -3.168196493
LeftToes 4.94765e-010 2.02697e-011 4.00889e-011
258
root 161.3312584 19.8887 -64.44811254 45.20591779 29.76974897 -6.802695376
RightUpLeg -49.84225762 4.96639635 -10.49424908
RightLeg 120.929653 2.463689413 0.7453951658
RightFoot -21.50097199 12.04077805 -8.888822888
RightToes 1.74622e-010 -3.18055e-015 8.94531e-016
Spine 48.6547 -2.24852 4.48013
Spine1 -15.8625 0.0957236 -8.5326
HEad -64.2026 4.42438 6.21879
LeftShoulder1 0 -2.69403e-036 -1.28585e-037
LeftArm 13.1592 -40.7105 -77.9268
LeftForeArm 1.51832 -27.2078 20.1817
LeftHand -2.49568 -0.0394953 34.7281
RightShoulder -2.48481e-017 0 -8.08114e-019
RightArm -5.96793 30.3191 99.0636
RightForeArm 23.9803 0.373363 1.22911
RightHand 9.22942 -21.6896 -46.5336
LeftUpLeg -37.37758733 -7.733156277 2.854638837
LeftLeg 93.45684295 0 0
LeftFoot 5.5711033 -22.47015005 -3.984349673
LeftToes 4.94765e-010 2.02697e-011 4.00889e-011
259
root 161.8860738 19.8335 -63.7426325 44.63113276 31.68645923 -6.301674238
RightUpLeg -55.38703586 3.198201048 -9.568074575
RightLeg 127.3840847 0.5074862285 3.426337091
RightFoot -26.42082593 11.6245904 -10.70020993
RightToes 1.74622e-010 -3.18055e-015 8.94531e-016
Spine 49.0903 -2.63879 4.66449
Spine1 -15.0541 -0.364449 -3.82385
HEad -64.316 5.65168 4.636
LeftShoulder1 0 -2.69403e-036 -1.28585e-037
LeftArm 2.68053 -50.0561 -74.4385
LeftForeArm 8.693 -20.1675 12.3892
LeftHand -2.24411 0.139727 32.5504
RightShoulder -2.48481e-017 0 -8.08114e-019
RightArm -5.35183 28.9667 99.5643
RightForeArm 25.6965 1.15246 1.69742
RightHand 9.42447 -21.8365 -47.148
LeftUpLeg -34.40589958 -9.95183468 3.606539965
LeftLeg 89.07509409 0 0
LeftFoot 6.874408497 -23.58626894 -3.441913476
LeftToes 4.94765e-010 2.02697e-011 4.00889e-011
260
root 162.2052052 19.7414 -63.04409564 43.53334796 33.67764358 -5.574769617
RightUpLeg -60.64789963 1.343370574 -8.973581929
RightLeg 133.0633574 -2.134535863 5.761610599
RightFoot -30.02099891 11.41796994 -11.98172123
RightToes 1.74622e-010 -3.18055e-015 8.94531e-016
Spine 50.0957 -3.29301 4.86629
Spine1 -14.2986 -1.09326 0.450857
HEad -64.0369 6.40372 3.3361
LeftShoulder1 0 -2.69403e-036 -1.28585e-037
LeftArm -8.29358 -57.264 -70.5081
LeftForeArm 15.0976 -10.6349 7.04647
LeftHand -1.69135 0.630446 27.7734
RightShoulder -2.48481e-017 0 -8.08114e-019
RightArm -4.63212 27.4958 100.213
RightForeArm 27.3062 1.51924 2.17363
RightHand 9.6625 -22.0024 -47.9203
LeftUpLeg -30.80351204 -12.98005594 4.694813047
LeftLeg 85.93425042 0 0
LeftFoot 8.041768081 -26.57954699 -4.485506281
LeftToes 4.94765e-010 2.02697e-011 4.00889e-011
261
root 162.4933136 19.6052 -62.34393941 42.19534673 35.41916845 -5.012588926
RightUpLeg -65.81870715 -0.291302936 -8.32816588
RightLeg 137.461191 -3.830172338 6.233977326
RightFoot -32.5625484 11.49442929 -12.50059342
RightToes 1.74622e-010 -3.18055e-015 8.94531e-016
Spine 51.5526 -3.93702 5.03659
Spine1 -14.3587 -1.75753 4.08937
HEad -63.3388 6.89237 2.25971
LeftShoulder1 0 -2.69403e-036 -1.28585e-037
LeftArm -6.42102 -61.6849 -69.484
LeftForeArm 10.2879 -1.84538 5.6629
LeftHand -1.09441 1.26795 22.1536
RightShoulder -2.48481e-017 0 -8.08114e-019
RightArm -4.0299 25.6109 100.669
RightForeArm 28.9055 1.50947 3.00562
RightHand 9.98114 -22.2111 -48.9627
LeftUpLeg -26.78111621 -15.83006436 5.420154924
LeftLeg 83.33723022 0 0
LeftFoot 7.266615534 -28.55310669 -6.016411735
LeftToes 4.94765e-010 2.02697e-011 4.00889e-011
262
root 162.8163863 19.4605 -61.60050096 40.75440527 37.02598651 -4.796886069
RightUpLeg -70.48700549 -1.90699452 -6.926852053
RightLeg 139.593135 -3.541308891 4.984798223
RightFoot -34.7179914 11.85889784 -11.9606812
RightToes 1.74622e-010 -3.18055e-015 8.94531e-016
Spine 52.9848 -4.53188 5.15645
Spine1 -14.3853 -2.41564 8.03637
HEad -63.0063 7.76618 1.07292
LeftShoulder1 0 -2.69403e-036 -1.28585e-037
LeftArm -5.91696 -63.1099 -69.5792
LeftForeArm 7.30258 1.54454 5.50225
LeftHand -0.896608 1.65212 20.9647
RightShoulder -2.48481e-017 0 -8.08114e-019
RightArm -2.78546 23.66 101.262
RightForeArm 30.1453 1.79947 3.72092
RightHand 10.3132 -22.443 -49.9613
LeftUpLeg -22.58167526 -17.85790561 5.814651124
LeftLeg 80.50189572 0 0
LeftFoot 5.398992325 -28.53060442 -5.812029296
LeftToes 4.94765e-010 2.02697e-011 4.00889e-011
263
root 163.1723901 19.2861 -60.8186145 39.21709536 38.55061266 -5.063508836
RightUpLeg -73.6495966 -3.163912648 -4.774930424
RightLeg 139.5068293 -2.128864049 3.273868265
RightFoot -35.34879763 12.61599973 -10.86412234
RightToes 1.74622e-010 -3.18055e-015 8.94531e-016
Spine 53.7359 -4.98158 5.86926
Spine1 -13.5045 -2.71365 11.3707
HEad -63.122 7.9715 -0.0220474
LeftShoulder1 0 -2.69403e-036 -1.28585e-037
LeftArm -6.18353 -62.113 -71.1058
LeftForeArm 5.78347 1.66143 5.81492
LeftHand -1.20654 1.53627 25.6466
RightShoulder -2.48481e-017 0 -8.08114e-019
RightArm -0.905469 21.7744 100.83
RightForeArm 29.959 2.51305 4.30318
RightHand 10.583 -22.6617 -50.647
LeftUpLeg -18.43442408 -18.89510829 6.199050281
LeftLeg 77.45670029 0 0
LeftFoot 4.83803873 -27.33869019 -4.242706845
LeftToes 4.94765e-010 2.02697e-011 4.00889e-011
264
root 163.5362917 19.0021 -60.02715269 37.86872211 39.83309572 -5.816674136
RightUpLeg -75.02843753 -3.54519481 -2.715043559
RightLeg 139.1922995 -1.037118551 1.967942709
RightFoot -32.63784576 13.69646513 -10.1604539
RightToes 1.74622e-010 -3.18055e-015 8.94531e-016
Spine 53.2586 -5.31054 7.54424
Spine1 -11.9033 -2.43148 12.9648
HEad -62.8761 7.05193 -0.898897
LeftShoulder1 0 -2.69403e-036 -1.28585e-037
LeftArm -5.7474 -59.7795 -73.6624
LeftForeArm 5.2746 1.46057 5.11933
LeftHand -1.76569 1.00475 31.1497
RightShoulder -2.48481e-017 0 -8.08114e-019
RightArm 1.56039 19.6199 98.9716
RightForeArm 28.1156 3.53202 4.76633
RightHand 10.7557 -22.8083 -51.0518
LeftUpLeg -14.79299439 -18.99278487 6.811456523
LeftLeg 74.77097544 0 0
LeftFoot 5.66732059 -25.46594857 -2.813525737
LeftToes 4.94765e-010 2.02697e-011 4.00889e-011
265
root 163.7888405 18.86397113 -59.22128728 35.24800389 41.26911352 -6.770562788
RightUpLeg -73.73107209 -2.919819835 -2.36714772
RightLeg 139.1580188 0 0
RightFoot -29.95451001 13.9050653 -15.35770096
RightToes -4.65663e-010 -1.59028e-015 9.93923e-017
Spine 53.77945933 -6.799116333 8.69609167
Spine1 -10.88978592 -3.086290264 12.89999133
HEad -62.21864342 7.024208084 -0.4856563028
LeftShoulder1 9.93923e-017 0 1.22299e-017
LeftArm -4.713912731 -57.17478759 -75.32375812
LeftForeArm 6.729389446 1.26952803 4.700139299
LeftHand -1.916217841 0.8469220688 32.43948503
RightShoulder 1.98785e-016 -4.96962e-017 1.55301e-017
RightArm 0.6343801798 22.39123433 97.34824545
RightForeArm 29.41807257 4.564792413 2.400487265
RightHand 10.22387276 -22.4183954 -49.56000688
LeftUpLeg -10.5065986 -19.83296278 7.737642535
LeftLeg 72.44028153 0 0
LeftFoot 6.668770774 -23.48143743 -3.642114075
LeftToes 3.34876e-009 -9.68256e-011 -6.12847e-011
266
root 164.0353058 18.78933756 -58.31221922 32.03754287 41.93637705 -7.745571808
RightUpLeg -70.99922977 -2.643831545 -2.227038273
RightLeg 139.5857214 0 0
RightFoot -27.39629162 12.45806776 -17.26749718
RightToes -4.65663e-010 -1.59028e-015 9.93923e-017
Spine 54.81459241 -7.478776645 9.335640556
Spine1 -10.26257318 -3.247870154 13.16687862
HEad -61.31509054 7.01479051 0.2716958087
LeftShoulder1 9.93923e-017 0 1.22299e-017
LeftArm -2.557792997 -53.06441666 -79.79949903
LeftForeArm 9.597645189 1.018133122 4.188111788
LeftHand -2.249725103 0.4971204791 35.16853365
RightShoulder 1.98785e-016 -4.96962e-017 1.55301e-017
RightArm 3.384937814 23.50529098 93.95876899
RightForeArm 26.36403042 8.754210609 -2.281425532
RightHand 9.023033476 -21.39871171 -46.44480301
LeftUpLeg -6.116074907 -20.38852062 8.029209672
LeftLeg 70.88867187 0 0
LeftFoot 7.332438814 -20.0435217 -3.78512472
LeftToes 3.34876e-009 -9.68256e-011 -6.12847e-011
